<svg xmlns="http://www.w3.org/2000/svg" xmlns:xlink="http://www.w3.org/1999/xlink" width="48" height="48" viewBox="0 0 48 48"><defs><clipPath id="clip-path"><path id="Icon_awesome-instagram" stroke="#000" stroke-width="1" d="M24,13.931A12.307,12.307,0,1,0,36.3,26.238,12.286,12.286,0,0,0,24,13.931Zm0,20.307a8,8,0,1,1,8-8,8.015,8.015,0,0,1-8,8ZM39.677,13.428a2.87,2.87,0,1,1-2.87-2.87A2.863,2.863,0,0,1,39.677,13.428Zm8.149,2.913C47.644,12.5,46.766,9.09,43.95,6.284S37.739,2.6,33.895,2.406c-3.962-.225-15.838-.225-19.8,0-3.834.182-7.239,1.06-10.055,3.867S.356,12.485.163,16.33c-.225,3.963-.225,15.841,0,19.8.182,3.845,1.06,7.251,3.876,10.057s6.211,3.684,10.055,3.877c3.962.225,15.838.225,19.8,0,3.844-.182,7.25-1.06,10.055-3.877s3.684-6.212,3.876-10.057c.225-3.963.225-15.83,0-19.793ZM42.707,40.387a8.1,8.1,0,0,1-4.562,4.563c-3.159,1.253-10.655.964-14.146.964s-11,.278-14.146-.964a8.1,8.1,0,0,1-4.562-4.563c-1.253-3.16-.964-10.657-.964-14.149s-.278-11,.964-14.149A8.1,8.1,0,0,1,9.854,7.526C13.013,6.273,20.509,6.562,24,6.562s11-.278,14.146.964a8.1,8.1,0,0,1,4.562,4.563c1.253,3.16.964,10.657.964,14.149S43.96,37.238,42.707,40.387Z" data-name="Icon awesome-instagram" transform="translate(-7976.995 1210.762)"/></clipPath></defs><g id="Instagram" clip-path="url(#clip-path)" transform="translate(7977 -1213)"><path id="Path_60" fill="#9263fc" d="M0,0H125.72V125.72H0Z" data-name="Path 60" transform="translate(-8050.478 1208.757)"/></g></svg>