<svg width="48" height="48" viewBox="0 0 48 48" fill="none" xmlns="http://www.w3.org/2000/svg">
<g clip-path="url(#clip0_196_4)">
<mask id="mask0_196_4" style="mask-type:luminance" maskUnits="userSpaceOnUse" x="0" y="-1" width="48" height="49">
<path d="M24.0058 11.6928C21.5714 11.6914 19.1912 12.412 17.1664 13.7635C15.1416 15.1149 13.5631 17.0365 12.6306 19.2852C11.698 21.5339 11.4533 24.0087 11.9274 26.3965C12.4014 28.7842 13.573 30.9778 15.2939 32.6997C17.0148 34.4215 19.2077 35.5943 21.5952 36.0698C23.9827 36.5452 26.4576 36.3019 28.7068 35.3706C30.956 34.4393 32.8785 32.8619 34.2312 30.8379C35.5838 28.8139 36.3057 26.4342 36.3057 23.9998C36.3085 22.3834 35.9923 20.7824 35.3752 19.2884C34.7582 17.7945 33.8524 16.437 32.7098 15.2937C31.5671 14.1505 30.2102 13.2439 28.7166 12.626C27.223 12.0081 25.6221 11.6909 24.0058 11.6928ZM24.0058 31.9998C22.4235 31.9998 20.8768 31.5306 19.5612 30.6515C18.2456 29.7725 17.2202 28.5231 16.6147 27.0612C16.0092 25.5994 15.8508 23.9909 16.1595 22.4391C16.4681 20.8872 17.2301 19.4617 18.3489 18.3429C19.4677 17.2241 20.8932 16.4622 22.445 16.1535C23.9969 15.8448 25.6054 16.0032 27.0672 16.6087C28.529 17.2142 29.7785 18.2396 30.6575 19.5552C31.5366 20.8708 32.0057 22.4175 32.0057 23.9998C32.0018 26.1203 31.1577 28.1528 29.6582 29.6522C28.1588 31.1517 26.1263 31.9958 24.0058 31.9998ZM39.6827 11.1898C39.6827 11.7574 39.5144 12.3123 39.1991 12.7843C38.8837 13.2562 38.4355 13.6241 37.911 13.8413C37.3866 14.0585 36.8096 14.1154 36.2528 14.0046C35.6961 13.8939 35.1847 13.6205 34.7834 13.2192C34.382 12.8178 34.1086 12.3064 33.9979 11.7497C33.8872 11.193 33.944 10.6159 34.1612 10.0915C34.3784 9.56705 34.7463 9.11882 35.2183 8.80346C35.6902 8.4881 36.2451 8.31977 36.8127 8.31977C37.1899 8.31885 37.5635 8.39245 37.9121 8.53636C38.2608 8.68026 38.5775 8.89163 38.8442 9.15832C39.1109 9.42501 39.3223 9.74176 39.4662 10.0904C39.6101 10.439 39.6837 10.8126 39.6827 11.1898ZM47.8317 14.1028C47.6497 10.2618 46.7717 6.85177 43.9557 4.04577C41.1397 1.23977 37.7447 0.361773 33.9007 0.167773C29.9387 -0.0572266 18.0627 -0.0572266 14.1007 0.167773C10.2667 0.349773 6.86175 1.22777 4.04575 4.03477C1.22975 6.84177 0.36175 10.2468 0.16875 14.0918C-0.05625 18.0548 -0.05625 29.9328 0.16875 33.8918C0.35075 37.7368 1.22875 41.1428 4.04475 43.9488C6.86075 46.7548 10.2557 47.6328 14.0997 47.8258C18.0617 48.0508 29.9377 48.0508 33.8997 47.8258C37.7437 47.6438 41.1497 46.7658 43.9548 43.9488C46.7598 41.1318 47.6387 37.7368 47.8307 33.8918C48.0557 29.9288 48.0557 18.0618 47.8307 14.0988L47.8317 14.1028ZM42.7127 38.1488C42.3056 39.1813 41.6905 40.1192 40.9057 40.9041C40.1209 41.6891 39.1832 42.3043 38.1507 42.7118C34.9917 43.9648 27.4958 43.6758 24.0048 43.6758C20.5138 43.6758 13.0047 43.9538 9.85875 42.7118C8.82628 42.3043 7.88856 41.6891 7.10379 40.9041C6.31902 40.1192 5.70395 39.1813 5.29675 38.1488C4.04375 34.9888 4.33275 27.4918 4.33275 23.9998C4.33275 20.5078 4.05475 12.9998 5.29675 9.85077C5.70406 8.81812 6.31929 7.8802 7.10423 7.09526C7.88918 6.31031 8.82709 5.69508 9.85975 5.28777C13.0187 4.03477 20.5148 4.32377 24.0058 4.32377C27.4968 4.32377 35.0057 4.04577 38.1517 5.28777C39.1842 5.6952 40.1219 6.31048 40.9067 7.09542C41.6915 7.88036 42.3065 8.81821 42.7137 9.85077C43.9667 13.0108 43.6777 20.5078 43.6777 23.9998C43.6777 27.4918 43.9657 34.9998 42.7127 38.1488Z" fill="white"/>
</mask>
<g mask="url(#mask0_196_4)">
<path d="M-73.4766 -4.24316H52.2434V121.477H-73.4766V-4.24316Z" fill="#FF248D"/>
</g>
</g>
<defs>
<clipPath id="clip0_196_4">
<rect width="48" height="48" fill="white"/>
</clipPath>
</defs>
</svg>
