<svg xmlns="http://www.w3.org/2000/svg" width="48" height="48" viewBox="0 0 48 48"><path id="LinkedIn" fill="#9263fc" d="M44.571,2.25H3.418A3.443,3.443,0,0,0,0,5.711V46.789A3.443,3.443,0,0,0,3.418,50.25H44.571A3.452,3.452,0,0,0,48,46.789V5.711A3.452,3.452,0,0,0,44.571,2.25ZM14.507,43.393H7.393V20.486h7.125V43.393ZM10.95,17.357a4.125,4.125,0,1,1,4.125-4.125A4.127,4.127,0,0,1,10.95,17.357ZM41.175,43.393H34.061V32.25c0-2.657-.054-6.075-3.7-6.075-3.707,0-4.275,2.893-4.275,5.882V43.393H18.975V20.486H25.8v3.129h.1a7.493,7.493,0,0,1,6.739-3.7c7.2,0,8.539,4.746,8.539,10.918Z" transform="translate(0 -2.25)"/></svg>