<svg width="48" height="48" viewBox="0 0 48 48" fill="none" xmlns="http://www.w3.org/2000/svg">
<g clip-path="url(#clip0_196_2)">
<path d="M44.571 0H3.41805C2.50612 0.00660919 1.63406 0.374741 0.993261 1.02361C0.352457 1.67247 -0.00474404 2.54906 4.75922e-05 3.461V44.539C-0.00474404 45.4509 0.352457 46.3275 0.993261 46.9764C1.63406 47.6253 2.50612 47.9934 3.41805 48H44.571C45.4841 47.9939 46.3576 47.6263 47.0003 46.9776C47.643 46.329 48.0024 45.4521 48 44.539V3.461C48.0024 2.54789 47.643 1.67102 47.0003 1.02235C46.3576 0.37369 45.4841 0.00608076 44.571 0ZM14.507 41.143H7.39305V18.236H14.518V41.143H14.507ZM10.95 15.107C10.1342 15.107 9.33667 14.8651 8.65832 14.4118C7.97997 13.9586 7.45126 13.3143 7.13904 12.5606C6.82683 11.8068 6.74514 10.9774 6.90431 10.1773C7.06347 9.37708 7.45634 8.64208 8.03323 8.06518C8.61012 7.48829 9.34513 7.09543 10.1453 6.93626C10.9455 6.7771 11.7749 6.85879 12.5286 7.171C13.2824 7.48321 13.9266 8.01192 14.3799 8.69027C14.8331 9.36863 15.075 10.1662 15.075 10.982C15.0745 12.0759 14.6398 13.1248 13.8663 13.8982C13.0928 14.6717 12.0439 15.1065 10.95 15.107ZM41.175 41.143H34.061V30C34.061 27.343 34.007 23.925 30.361 23.925C26.654 23.925 26.086 26.818 26.086 29.807V41.143H18.975V18.236H25.8V21.365H25.9C26.5844 20.1971 27.5723 19.2363 28.7589 18.5849C29.9454 17.9334 31.2863 17.6155 32.639 17.665C39.839 17.665 41.178 22.411 41.178 28.583L41.175 41.143Z" fill="#FF248D"/>
</g>
<defs>
<clipPath id="clip0_196_2">
<rect width="48" height="48" fill="white"/>
</clipPath>
</defs>
</svg>
